<svg xmlns="http://www.w3.org/2000/svg" viewBox="0 0 128 128" width="128" height="128">
  <!-- Background Shield/Card -->
  <rect x="8" y="8" width="112" height="112" rx="24" fill="#1E1E2E"/>
  <rect x="8" y="8" width="112" height="112" rx="24" fill="none" stroke="#6C5CE7" stroke-width="3" opacity="0.6"/>

  <!-- Git Branch Lines -->
  <path d="M 40 32 L 40 96" stroke="#A6ADC8" stroke-width="7" stroke-linecap="round"/>
  <path d="M 40 52 C 40 72, 76 60, 76 76 L 76 96" fill="none" stroke="#6C5CE7" stroke-width="7" stroke-linecap="round"/>

  <!-- Git Nodes -->
  <circle cx="40" cy="36" r="9" fill="#89B4FA"/>
  <circle cx="40" cy="92" r="9" fill="#89B4FA"/>
  <circle cx="76" cy="92" r="9" fill="#A6E3A1"/>

  <!-- AI Sparkles -->
  <!-- Sparkle 1 (Top Right) -->
  <path d="M 88 28 C 88 36, 96 36, 96 36 C 96 36, 88 36, 88 44 C 88 36, 80 36, 80 36 C 80 36, 88 36, 88 28 Z" fill="#F9E2AF"/>
  <!-- Sparkle 2 (Center Right) -->
  <path d="M 100 48 C 100 53, 105 53, 105 53 C 105 53, 100 53, 100 58 C 100 53, 95 53, 95 53 C 95 53, 100 53, 100 48 Z" fill="#F9E2AF"/>
  <!-- Sparkle 3 (Small) -->
  <path d="M 72 24 C 72 27, 75 27, 75 27 C 75 27, 72 27, 72 30 C 72 27, 69 27, 69 27 C 69 27, 72 27, 72 24 Z" fill="#FAB387"/>
</svg>
